<svg xmlns="http://www.w3.org/2000/svg" viewBox="0 0 256 256" role="img" aria-labelledby="title">
  <title id="title">Ripple Spark</title>
  <path d="M 126.677 22.625 C 126.580 22.705, 122.450 23.050, 117.500 23.391 C 105.871 24.193, 100.730 24.967, 99.550 26.093 C 99.027 26.592, 97.071 27, 95.201 27 C 90.408 27, 83.585 30.417, 65.662 41.793 C 60.023 45.371, 51.196 53.594, 45.500 60.575 C 43.300 63.271, 40.713 66.269, 39.750 67.238 C 38.788 68.207, 38 69.449, 38 69.998 C 38 70.546, 36.425 73.188, 34.500 75.867 C 32.575 78.547, 31 81.266, 31 81.909 C 31 82.553, 30.107 84.829, 29.017 86.967 C 27.926 89.106, 25.902 94.759, 24.520 99.529 C 22.230 107.428, 21.282 112.204, 19.494 124.820 C 18.481 131.971, 21.896 156.552, 25.145 165.500 C 28.399 174.460, 31.744 181.158, 36.371 187.977 C 41.044 194.864, 41.994 195.991, 49.500 203.544 C 57.967 212.064, 63.553 216.394, 64.957 215.527 C 65.531 215.172, 66 215.614, 66 216.508 L 66 218.135 67.876 217.539 L 69.752 216.944 70.316 219.102 L 70.881 221.260 72.440 220.661 C 73.383 220.300, 74 220.602, 74 221.424 C 74 222.173, 74.712 223.059, 75.582 223.393 C 78.199 224.397, 78.492 224.086, 76.441 222.479 L 74.500 220.957 78.207 222.643 C 80.246 223.571, 81.635 224.782, 81.293 225.335 C 80.921 225.937, 81.347 226.081, 82.359 225.693 C 83.364 225.307, 84.768 225.768, 85.835 226.835 C 86.820 227.820, 88.118 228.461, 88.720 228.260 C 89.322 228.059, 93.294 229.032, 97.547 230.420 C 101.799 231.809, 105.635 232.726, 106.070 232.457 C 106.506 232.188, 107.149 232.432, 107.500 233 C 107.851 233.568, 108.577 233.762, 109.113 233.430 C 109.649 233.099, 110.703 233.338, 111.455 233.962 L 112.822 235.097 113.500 234 L 114.178 232.903 115.589 234.074 L 117 235.245 117 233.431 L 117 231.618 118.343 233.454 L 119.686 235.291 132.593 234.731 C 140.785 234.376, 146.961 233.594, 149.500 232.590 L 153.500 231.008 148.165 231.609 C 139.409 232.597, 137.303 232.637, 135.355 231.856 C 134.179 231.384, 135.331 231.118, 138.500 231.128 C 143.782 231.144, 147.251 230.581, 149.168 229.396 C 149.807 229.001, 151.612 228.578, 153.180 228.454 C 157.300 228.130, 162 225.975, 162 224.410 C 162 223.586, 161.379 223.301, 160.399 223.677 C 159.519 224.015, 158.469 223.758, 158.066 223.107 L 157.334 221.922 154.840 222.871 C 153.469 223.392, 149.681 224.088, 146.423 224.417 L 140.500 225.016 142 224.023 L 143.500 223.031 133 223.002 C 122.471 222.974, 106.925 220.462, 100.976 217.829 C 96.037 215.643, 97.633 215.026, 103.250 216.949 C 106.138 217.938, 109.850 219.061, 111.500 219.444 C 116.134 220.521, 113.171 218.524, 108 217.085 C 105.525 216.397, 100.657 214.288, 97.183 212.399 C 93.709 210.510, 90.377 209.267, 89.779 209.637 C 89.163 210.017, 88.975 209.849, 89.346 209.250 C 89.711 208.659, 88.078 207.063, 85.654 205.643 C 81.120 202.986, 67.500 191.131, 67.500 189.842 C 67.500 189.434, 66.871 188.515, 66.103 187.800 L 64.707 186.500 65.508 187.905 L 66.309 189.309 65.160 188.599 C 64.528 188.208, 63.513 186.959, 62.906 185.824 L 61.800 183.759 63.150 184.575 C 63.893 185.024, 63.037 183.713, 61.250 181.661 C 59.462 179.609, 58 177.245, 58 176.406 C 58 175.568, 57.550 175.160, 57 175.500 C 56.450 175.840, 55.931 175.304, 55.848 174.309 C 55.764 173.314, 55.645 171.998, 55.583 171.386 C 55.521 170.773, 54.878 169.557, 54.154 168.685 C 53.430 167.813, 52.742 166.447, 52.625 165.651 C 52.508 164.854, 51.831 163.501, 51.120 162.645 C 50.409 161.788, 50.118 160.618, 50.473 160.044 C 50.828 159.470, 50.684 159, 50.153 159 C 49.622 159, 49.421 158.105, 49.707 157.012 C 50.044 155.724, 49.629 154.795, 48.530 154.373 L 46.832 153.722 48.126 152.922 L 49.420 152.122 47.649 150.165 L 45.878 148.207 47.127 147.791 L 48.376 147.375 46.688 144.965 C 45.760 143.639, 45.007 142.093, 45.015 141.527 C 45.024 140.962, 45.510 141.175, 46.096 142 L 47.162 143.500 46.430 140.500 C 45.466 136.544, 45.937 122.713, 47.112 120.482 C 47.397 119.942, 47.601 118.037, 47.565 116.250 C 47.529 114.463, 47.832 113, 48.238 113 C 48.644 113, 49.264 111.200, 49.616 109 C 49.968 106.800, 50.634 105, 51.096 105 C 51.559 105, 51.678 104.325, 51.362 103.500 C 51.045 102.675, 51.311 102, 51.952 102 C 52.593 102, 52.839 101.549, 52.498 100.997 C 51.882 99.999, 57.465 90.353, 61.750 85.015 C 62.987 83.473, 64 81.762, 64 81.213 C 64 80.663, 64.675 79.955, 65.500 79.638 C 66.325 79.322, 67 78.374, 67 77.531 C 67 76.689, 67.490 76, 68.090 76 C 69.461 76, 72.922 71.919, 72.967 70.250 C 72.985 69.562, 73.562 69.112, 74.250 69.250 C 74.938 69.387, 75.376 68.904, 75.225 68.176 C 75.074 67.447, 75.417 67.140, 75.987 67.492 C 76.979 68.105, 79.899 66.216, 85.760 61.169 C 88.751 58.593, 104.282 51, 106.559 51 C 107.352 51, 108 50.325, 108 49.500 C 108 48.675, 108.477 48, 109.059 48 C 109.641 48, 109.840 48.450, 109.500 49 C 108.718 50.266, 110.042 50.266, 112 49 L 113.500 48.031 112 47.945 L 110.500 47.859 112.500 47.038 C 113.600 46.587, 117.048 46.283, 120.163 46.364 C 123.278 46.445, 125.303 46.178, 124.663 45.771 C 124.023 45.364, 126.114 45.024, 129.309 45.015 C 132.924 45.006, 134.885 44.622, 134.500 44 C 134.160 43.450, 134.321 43, 134.858 43 C 135.394 43, 136.023 43.563, 136.254 44.250 L 136.675 45.500 138.360 44.109 L 140.046 42.717 139.416 44.359 C 139.066 45.271, 139.277 46, 139.893 46 C 140.502 46, 141 45.550, 141 45 C 141 44.450, 142.575 44, 144.500 44 L 148 44 148.015 45.750 L 148.031 47.500 148.890 46.143 L 149.750 44.786 153.125 45.463 C 166.721 48.190, 192.192 60.731, 191.209 64.214 C 191.049 64.781, 191.579 64.992, 192.386 64.682 C 194.046 64.045, 196.379 66.287, 195.241 67.425 C 194.834 67.833, 195.155 68.017, 195.955 67.833 C 196.755 67.650, 197.430 68.037, 197.455 68.693 C 197.510 70.136, 202.150 74.601, 203.231 74.250 C 203.654 74.113, 203.890 74.338, 203.756 74.750 C 203.622 75.163, 205.640 78.875, 208.241 83 C 212.953 90.472, 214.473 91.785, 211.366 85.700 C 210.467 83.940, 208.791 81.164, 207.642 79.532 C 206.493 77.900, 205.463 75.948, 205.352 75.194 C 205.086 73.383, 201.923 69.930, 201.033 70.480 C 200.648 70.717, 200.333 70.239, 200.333 69.416 C 200.333 68.475, 201.742 69.295, 204.125 71.622 C 206.211 73.659, 207.713 75.656, 207.462 76.061 C 207.212 76.466, 208.401 78.288, 210.104 80.112 C 213.713 83.975, 217.208 90.761, 220.477 100.250 C 222.648 106.555, 222.683 107.424, 220.750 107.118 C 219.820 106.972, 219.889 107.916, 221 110.500 L 221.859 112.500 221.930 110.250 C 221.968 109.013, 222.450 108, 223 108 C 224.335 108, 224.279 111.321, 222.922 112.678 C 221.472 114.128, 222.158 119.568, 223.750 119.250 C 224.438 119.113, 225 119.702, 225 120.559 C 225 121.416, 224.550 121.840, 224 121.500 C 222.845 120.786, 222.679 122.974, 223.765 124.600 C 224.169 125.205, 225.175 125.957, 226 126.271 L 227.500 126.842 225.768 126.921 L 224.036 127 224.149 132 C 224.268 137.302, 225.472 138.475, 226.969 134.750 L 227.873 132.500 227.937 134.193 C 227.971 135.125, 227.169 136.475, 226.152 137.193 C 224.974 138.027, 224.113 140.220, 223.775 143.250 C 223.136 148.987, 224.713 149.646, 225.613 144.018 C 225.963 141.828, 226.566 140.232, 226.953 140.471 C 227.820 141.007, 225.797 151.552, 224.610 152.682 C 224.135 153.134, 224.061 152.494, 224.443 151.250 C 224.825 150.009, 224.708 149, 224.184 149 C 223.239 149, 222.040 152.246, 222.014 154.872 L 222 156.245 223.687 154.872 L 225.374 153.500 224.687 155.332 C 224.309 156.339, 224 157.338, 224 157.550 C 224 157.763, 223.412 157.712, 222.693 157.436 L 221.386 156.934 219.005 164.217 C 217.695 168.223, 215.746 172.991, 214.675 174.814 L 212.727 178.127 213.855 179.072 C 214.476 179.592, 214.781 179.732, 214.535 179.385 C 213.917 178.515, 218.001 170.668, 218.705 171.372 C 219.016 171.683, 218.503 173.110, 217.564 174.543 C 216.625 175.976, 215.691 178.007, 215.489 179.055 C 215.287 180.104, 213.811 182.883, 212.209 185.231 C 210.607 187.579, 209.470 189.995, 209.682 190.600 C 209.893 191.205, 209.264 192.308, 208.283 193.052 L 206.500 194.404 207.750 193.002 C 208.437 192.231, 208.986 191.128, 208.968 190.550 C 208.951 189.973, 208.290 190.354, 207.500 191.397 C 206.710 192.441, 206.298 193.673, 206.583 194.134 C 206.868 194.596, 206.179 195.965, 205.051 197.176 C 203.923 198.386, 203 199.723, 203 200.146 C 203 200.568, 205.065 198.706, 207.590 196.007 C 210.114 193.308, 211.909 190.662, 211.578 190.126 C 211.247 189.590, 211.693 189.005, 212.570 188.826 C 213.446 188.647, 215.853 185.422, 217.917 181.659 C 219.981 177.897, 222.042 174.890, 222.497 174.977 C 222.951 175.065, 223.926 173.704, 224.662 171.953 C 226.242 168.196, 226.303 167.695, 225.093 168.442 C 224.595 168.751, 224.432 168.064, 224.732 166.917 C 225.082 165.580, 225.533 165.244, 225.988 165.981 C 226.382 166.618, 227.466 164.400, 228.418 161.008 C 229.363 157.641, 230.780 154.638, 231.568 154.336 C 232.356 154.033, 233 153.358, 233 152.834 C 233 152.310, 232.500 152.191, 231.889 152.569 L 230.777 153.256 231.465 147.878 C 231.902 144.468, 232.858 141.892, 234.077 140.840 C 235.135 139.927, 235.993 138.127, 235.985 136.840 L 235.969 134.500 235 136 L 234.031 137.500 234.015 134.333 C 234.007 132.592, 233.438 130.977, 232.750 130.746 L 231.500 130.325 232.872 128.663 L 234.245 127 233.036 125.544 C 232.372 124.743, 232.118 123.618, 232.473 123.044 C 232.828 122.470, 232.703 122, 232.197 122 C 231.690 122, 231.399 120.875, 231.549 119.500 C 231.700 118.125, 231.428 117, 230.943 117 C 230.459 117, 230.332 116.299, 230.660 115.443 C 230.989 114.586, 231.875 114.122, 232.629 114.411 C 233.383 114.700, 234 114.532, 234 114.036 C 234 113.540, 233.100 112.849, 232 112.500 C 229.798 111.801, 229.269 110.018, 231.250 109.970 C 231.938 109.953, 231.659 109.450, 230.630 108.853 L 228.760 107.766 230.130 106.898 L 231.500 106.031 230.276 106.015 C 229.602 106.007, 228.353 104.650, 227.500 103 C 226.647 101.350, 226.379 100, 226.905 100 C 227.491 100, 227.452 98.745, 226.802 96.750 C 226.219 94.963, 225.753 92.490, 225.765 91.257 C 225.778 90.023, 225.408 89.248, 224.944 89.535 C 223.765 90.263, 221.754 86.208, 222.608 84.825 C 222.994 84.201, 222.880 83.956, 222.355 84.281 C 221.830 84.605, 220.827 83.953, 220.126 82.831 L 218.852 80.791 220.056 81.535 C 220.823 82.009, 221.092 81.775, 220.796 80.889 C 220.542 80.125, 219.808 79.500, 219.167 79.500 C 218.525 79.500, 218.113 79.102, 218.250 78.615 C 218.387 78.128, 217.600 77.389, 216.500 76.974 C 215.400 76.559, 213.675 74.707, 212.667 72.860 L 210.833 69.500 212.894 72 C 216.021 75.792, 215.400 73.442, 211.952 68.430 C 209.185 64.408, 207.904 63.617, 204.329 63.718 C 203.678 63.737, 203.422 63.063, 203.753 62.202 L 204.347 60.653 202.725 61.275 L 201.102 61.898 201.679 60.395 L 202.256 58.892 204.442 60.946 C 207.934 64.226, 208.400 63.318, 205.055 59.750 C 203.380 57.962, 202.007 56.163, 202.005 55.750 C 202.002 55.337, 201.435 55, 200.744 55 C 200.054 55, 198.190 53.442, 196.602 51.537 C 195.014 49.633, 190.516 45.946, 186.607 43.345 C 182.698 40.744, 179.270 38.288, 178.990 37.887 C 178.372 37.005, 168.558 32.013, 167.355 31.969 C 166.885 31.952, 164.250 30.831, 161.500 29.478 C 158.750 28.125, 155.544 27.014, 154.376 27.009 C 153.207 27.004, 150.282 26.266, 147.876 25.370 C 144.475 24.103, 127.545 21.911, 126.677 22.625 M 195 63.385 C 195 63.597, 196.238 64.566, 197.750 65.540 L 200.500 67.310 198.595 65.155 C 196.909 63.248, 195 62.308, 195 63.385 M 115.535 70.589 C 111.705 71.446, 104.955 73.877, 100.535 75.990 L 92.500 79.831 84.824 87.394 C 80.602 91.554, 76.860 95.867, 76.507 96.979 C 76.154 98.090, 75.506 99, 75.068 99 C 74.216 99, 68.830 111.174, 67.103 117 C 64.628 125.352, 65.021 147.026, 67.726 151.352 C 68.121 151.983, 68.545 153.175, 68.669 154 C 69.048 156.521, 73.289 165, 74.171 165 C 74.627 165, 75 165.604, 75 166.342 C 75 167.079, 75.901 168.767, 77.003 170.092 C 78.104 171.416, 80.426 174.217, 82.164 176.316 C 83.901 178.414, 87.837 182.064, 90.911 184.426 C 96.312 188.577, 107 194.599, 107 193.491 C 107 193.193, 108.350 193.647, 110 194.500 C 111.650 195.353, 113 195.790, 113 195.469 C 113 195.149, 110.938 193.975, 108.417 192.860 C 105.896 191.745, 104.027 190.640, 104.263 190.403 C 104.500 190.167, 106.450 190.717, 108.596 191.625 C 110.743 192.533, 114.750 193.884, 117.500 194.626 C 123.073 196.131, 139 196.494, 139 195.116 C 139 194.631, 136.188 193.916, 132.750 193.529 C 125.038 192.660, 114.397 188.867, 114.775 187.121 C 114.926 186.423, 114.588 186.136, 114.025 186.485 C 113.461 186.833, 113 186.615, 113 186 C 113 185.385, 112.550 185.160, 112 185.500 C 111.450 185.840, 111 185.663, 111 185.107 C 111 184.551, 109.021 182.735, 106.602 181.070 C 104.184 179.406, 100.696 176.405, 98.852 174.402 C 97.009 172.398, 94.515 169.736, 93.311 168.485 C 92.106 167.235, 91.350 165.983, 91.630 165.703 C 91.910 165.423, 91.259 163.463, 90.182 161.347 C 89.106 159.231, 87.235 154.172, 86.026 150.104 L 83.828 142.707 84.446 136.104 C 85.490 124.958, 86.189 121, 87.114 121 C 87.601 121, 88 120.303, 88 119.450 C 88 117.704, 90.393 112.773, 92.488 110.203 C 93.252 109.266, 95.521 106.475, 97.531 104 C 103.769 96.318, 118.329 88, 125.538 88 C 126.892 88, 128 87.612, 128 87.139 C 128 86.665, 129.238 86.446, 130.750 86.653 L 133.500 87.028 131.500 86.084 L 129.500 85.141 133.167 85.070 C 135.224 85.031, 137.055 85.549, 137.338 86.250 L 137.842 87.500 137.921 86.250 C 138.112 83.224, 151.778 86.155, 162.513 91.525 C 168.815 94.678, 178.311 102.592, 183.219 108.782 C 185.987 112.274, 190.693 123.030, 192.513 130.025 C 194.328 136.997, 194.563 145.663, 193.145 153.255 C 192.657 155.865, 192.613 158, 193.046 158 C 194.212 158, 196.048 148.626, 196.678 139.454 L 197.231 131.407 195.602 123.454 C 193.934 115.311, 187.758 101, 185.911 101 C 185.345 101, 185.165 100.541, 185.512 99.981 C 185.858 99.421, 182.148 94.976, 177.267 90.105 L 168.393 81.247 159.947 77.183 C 147.205 71.052, 143.405 69.987, 132.500 69.488 L 122.500 69.031 115.535 70.589 M 234.070 129.250 C 234.109 129.938, 234.527 131.400, 235 132.500 L 235.859 134.500 235.930 131.250 C 235.968 129.463, 235.550 128, 235 128 C 234.450 128, 234.032 128.563, 234.070 129.250 M 230.449 158.468 C 228.770 162.487, 228.560 166, 230 166 C 230.550 166, 231.037 165.438, 231.083 164.750 C 231.278 161.831, 231.712 159.359, 232.400 157.250 C 233.562 153.691, 232.051 154.634, 230.449 158.468 M 227.374 168.467 C 226.321 171.211, 227.570 172.239, 228.766 169.613 C 229.514 167.973, 229.581 167, 228.947 167 C 228.392 167, 227.684 167.660, 227.374 168.467 M 224.617 175.250 L 224 177.500 222.906 176 L 221.811 174.500 222.406 176.332 C 222.733 177.339, 223 178.352, 223 178.582 C 223 179.992, 224.864 178.595, 225.839 176.453 C 227.233 173.395, 227.264 173, 226.117 173 C 225.631 173, 224.956 174.012, 224.617 175.250 M 210.635 182.469 C 209.736 183.861, 208.220 186.238, 207.267 187.750 L 205.535 190.500 207.255 189.138 C 209.380 187.455, 213.403 181.070, 212.750 180.416 C 212.486 180.153, 211.535 181.077, 210.635 182.469 M 97 186.474 C 97 186.735, 98.463 187.662, 100.250 188.535 L 103.500 190.120 101 188.082 C 98.593 186.120, 97 185.480, 97 186.474 M 140 195 C 140 196.253, 141.061 196.253, 143 195 L 144.500 194.031 142.250 194.015 C 141.012 194.007, 140 194.450, 140 195 M 88 211.490 C 88 212.175, 94.123 215.210, 94.580 214.753 C 94.797 214.536, 93.406 213.610, 91.487 212.695 C 89.569 211.781, 88 211.239, 88 211.490 M 166.730 219.091 C 165.756 219.658, 163.956 219.840, 162.730 219.495 L 160.500 218.869 161.835 219.796 L 163.169 220.723 160.878 221.322 C 159.618 221.651, 158.829 222.162, 159.124 222.457 C 159.753 223.086, 169.060 220.136, 170.450 218.867 C 171.789 217.645, 168.917 217.818, 166.730 219.091 M 163.500 222.833 C 162.103 224.230, 163.306 225.141, 165.750 224.538 C 169.808 223.535, 170.508 222.333, 167.033 222.333 C 165.365 222.333, 163.775 222.558, 163.500 222.833" stroke="none" fill="#191815" fill-rule="evenodd"/>
  <path d="M138 149c5-2 15-2 18 2 3 4 2 14-1 17-4 3-15 3-18-1-3-4-2-14 1-18Z" fill="#c2410c"/>
</svg>
