<svg xmlns="http://www.w3.org/2000/svg" width="1200" height="630" viewBox="0 0 1200 630">
  <defs>
    <linearGradient id="bg" x1="0%" y1="0%" x2="100%" y2="100%">
      <stop offset="0%" style="stop-color:#fbf9f4;stop-opacity:1" />
      <stop offset="100%" style="stop-color:#e8ddc5;stop-opacity:1" />
    </linearGradient>
    <filter id="bleed"><feTurbulence type="fractalNoise" baseFrequency="0.035" numOctaves="3" result="noise"/><feDisplacementMap in="SourceGraphic" in2="noise" scale="5"/></filter>
  </defs>

  <rect width="1200" height="630" fill="url(#bg)"/>
  <g opacity="0.12" fill="#465448">
    <circle cx="1010" cy="110" r="150"/>
    <circle cx="1110" cy="520" r="220"/>
  </g>
  <g filter="url(#bleed)">
    <path d="M910 190 C1000 110 1110 180 1090 275 C1070 365 940 350 900 430 C860 510 760 470 800 370 C835 285 840 250 910 190Z" fill="#191815" opacity="0.78"/>
    <path d="M970 225 C1015 205 1050 235 1030 270 C1010 305 955 295 935 330" fill="none" stroke="#c2410c" stroke-width="24" stroke-linecap="round"/>
  </g>
  <rect x="78" y="108" width="46" height="4" fill="#c2410c"/>
  <text x="78" y="185" font-family="Inter, sans-serif" font-size="68" font-weight="800" fill="#191815">Roel van Bergen</text>
  <text x="78" y="250" font-family="Georgia, serif" font-size="37" font-style="italic" fill="#57534e">Code with care. Grow with attention.</text>
  <text x="78" y="530" font-family="Inter, sans-serif" font-size="20" letter-spacing="5" fill="#9a3412">ENGINEERING  COACHING  ZEN</text>
  <text x="78" y="575" font-family="Inter, sans-serif" font-size="18" fill="#78716c">roelvanbergen.nl</text>
</svg>
